<svg xmlns="http://www.w3.org/2000/svg" width="32.902" height="32.902" viewBox="0 0 32.902 32.902">
  <defs>
    <style>
      .cls-1 {
        fill: none;
        stroke: #3e3f5c;
        stroke-linecap: round;
        stroke-linejoin: round;
        stroke-width: 3px;
      }
    </style>
  </defs>
  <g id="Icon_feather-eye-off" data-name="Icon feather-eye-off" transform="translate(2.121 2.121)">
    <path id="Path_2" data-name="Path 2" class="cls-1" d="M23.567,24.159a13.118,13.118,0,0,1-7.738,2.684C6.711,26.843,1.5,16.421,1.5,16.421A24.034,24.034,0,0,1,8.092,8.684m5-2.371A11.88,11.88,0,0,1,15.83,6c9.119,0,14.33,10.421,14.33,10.421a24.1,24.1,0,0,1-2.814,4.156m-8.754-1.394a3.908,3.908,0,1,1-5.523-5.523" transform="translate(-1.5 -2.092)"/>
    <path id="Path_3" data-name="Path 3" class="cls-1" d="M1.5,1.5,30.159,30.159" transform="translate(-1.5 -1.5)"/>
  </g>
</svg>
